<svg width="34" height="34" viewBox="0 0 34 34" fill="none" xmlns="http://www.w3.org/2000/svg">
<rect x="1" y="1" width="32" height="32" rx="16" fill="#FAFAFA"/>
<rect x="1" y="1" width="32" height="32" rx="16" stroke="#DDDDDD"/>
<path fill-rule="evenodd" clip-rule="evenodd" d="M23.5699 10.4301C23.9767 10.8369 23.9767 11.4964 23.5699 11.9032L11.9032 23.5699C11.4964 23.9767 10.8369 23.9767 10.4301 23.5699C10.0233 23.1631 10.0233 22.5036 10.4301 22.0968L22.0968 10.4301C22.5036 10.0233 23.1631 10.0233 23.5699 10.4301Z" fill="#151515"/>
<path fill-rule="evenodd" clip-rule="evenodd" d="M10.4301 10.4301C10.8369 10.0233 11.4964 10.0233 11.9032 10.4301L23.5699 22.0968C23.9767 22.5036 23.9767 23.1631 23.5699 23.5699C23.1631 23.9767 22.5036 23.9767 22.0968 23.5699L10.4301 11.9032C10.0233 11.4964 10.0233 10.8369 10.4301 10.4301Z" fill="#151515"/>
</svg>
