<svg width="76" height="76" viewBox="0 0 76 76" fill="none" xmlns="http://www.w3.org/2000/svg">
<path d="M38 73C57.33 73 73 57.33 73 38C73 18.67 57.33 3 38 3C18.67 3 3 18.67 3 38C3 57.33 18.67 73 38 73Z" stroke="#FFA500" stroke-width="6"/>
<path d="M51.0858 39.3818C50.5556 41.5752 48.0499 43.1254 43.0386 46.2257C38.194 49.2224 35.772 50.7211 33.8197 50.1187C33.0126 49.8695 32.2775 49.3967 31.6844 48.745C30.25 47.1693 30.25 44.1127 30.25 38C30.25 31.8872 30.25 28.8306 31.6844 27.2548C32.2775 26.6033 33.0126 26.1304 33.8197 25.8813C35.772 25.279 38.194 26.7775 43.0386 29.7744C48.0499 32.8746 50.5556 34.4247 51.0858 36.6182C51.3046 37.5236 51.3046 38.4763 51.0858 39.3818Z" stroke="#FFA500" stroke-width="6" stroke-linejoin="round"/>
</svg>
