<svg width="14" height="14" viewBox="0 0 14 14" fill="none" xmlns="http://www.w3.org/2000/svg">
<path d="M9.91663 8.34425C9.91663 8.14259 9.91663 8.04179 9.94696 7.95196C10.0352 7.69086 10.2677 7.58959 10.5006 7.48348C10.7625 7.36419 10.8934 7.30457 11.0231 7.29407C11.1704 7.28217 11.3179 7.31391 11.4438 7.38455C11.6107 7.47817 11.7271 7.65615 11.8462 7.80087C12.3966 8.46926 12.6717 8.80351 12.7723 9.17206C12.8536 9.46944 12.8536 9.78047 12.7723 10.0779C12.6255 10.6154 12.1616 11.066 11.8182 11.4831C11.6425 11.6964 11.5547 11.8031 11.4438 11.8654C11.3179 11.936 11.1704 11.9677 11.0231 11.9558C10.8934 11.9453 10.7625 11.8857 10.5006 11.7664C10.2677 11.6603 10.0352 11.5591 9.94696 11.298C9.91663 11.2081 9.91663 11.1073 9.91663 10.9057V8.34425Z" stroke="#AFAFAF" stroke-width="1.5"/>
<path d="M4.08329 8.34429C4.08329 8.09043 4.07616 7.86223 3.87091 7.68373C3.79625 7.6188 3.69727 7.57371 3.49932 7.48353C3.23747 7.36429 3.10654 7.30468 2.9768 7.29418C2.58757 7.26268 2.37816 7.52833 2.1537 7.80098C1.6034 8.46936 1.32824 8.80355 1.22756 9.1721C1.14631 9.46954 1.14631 9.78058 1.22756 10.078C1.37441 10.6155 1.83835 11.0661 2.18175 11.4832C2.39821 11.7461 2.60499 11.986 2.9768 11.9559C3.10654 11.9454 3.23747 11.8858 3.49932 11.7665C3.69727 11.6764 3.79625 11.6313 3.87091 11.5663C4.07616 11.3878 4.08329 11.1597 4.08329 10.9058V8.34429Z" stroke="#AFAFAF" stroke-width="1.5"/>
<path d="M11.0833 7.29163V6.12496C11.0833 3.8698 9.25513 2.04163 6.99996 2.04163C4.7448 2.04163 2.91663 3.8698 2.91663 6.12496V7.29163" stroke="#AFAFAF" stroke-width="1.5" stroke-linecap="square" stroke-linejoin="round"/>
</svg>
