<svg width="34" height="34" viewBox="0 0 34 34" fill="none" xmlns="http://www.w3.org/2000/svg">
<rect x="1" y="1" width="32" height="32" rx="16" fill="#FAFAFA"/>
<rect x="1" y="1" width="32" height="32" rx="16" stroke="#EEEEEE"/>
<path fill-rule="evenodd" clip-rule="evenodd" d="M9.5 17C9.5 16.5397 9.87308 16.1666 10.3333 16.1666H18.6667C19.1269 16.1666 19.5 16.5397 19.5 17C19.5 17.4602 19.1269 17.8333 18.6667 17.8333H10.3333C9.87308 17.8333 9.5 17.4602 9.5 17Z" fill="#151515"/>
<path fill-rule="evenodd" clip-rule="evenodd" d="M9.5 11.1667C9.5 10.7065 9.87308 10.3334 10.3333 10.3334H23.6667C24.1269 10.3334 24.5 10.7065 24.5 11.1667C24.5 11.6269 24.1269 12 23.6667 12H10.3333C9.87308 12 9.5 11.6269 9.5 11.1667Z" fill="#151515"/>
<path fill-rule="evenodd" clip-rule="evenodd" d="M9.5 22.8333C9.5 22.3731 9.87308 22 10.3333 22H23.6667C24.1269 22 24.5 22.3731 24.5 22.8333C24.5 23.2936 24.1269 23.6667 23.6667 23.6667H10.3333C9.87308 23.6667 9.5 23.2936 9.5 22.8333Z" fill="#151515"/>
</svg>
