<svg width="20" height="20" viewBox="0 0 20 20" fill="none" xmlns="http://www.w3.org/2000/svg">
<path fill-rule="evenodd" clip-rule="evenodd" d="M2.5 9.99996C2.5 9.53971 2.87308 9.16663 3.33333 9.16663H11.6667C12.1269 9.16663 12.5 9.53971 12.5 9.99996C12.5 10.4602 12.1269 10.8333 11.6667 10.8333H3.33333C2.87308 10.8333 2.5 10.4602 2.5 9.99996Z" fill="#151515"/>
<path fill-rule="evenodd" clip-rule="evenodd" d="M2.5 4.16671C2.5 3.70647 2.87308 3.33337 3.33333 3.33337H16.6667C17.1269 3.33337 17.5 3.70647 17.5 4.16671C17.5 4.62695 17.1269 5.00004 16.6667 5.00004H3.33333C2.87308 5.00004 2.5 4.62694 2.5 4.16671Z" fill="#151515"/>
<path fill-rule="evenodd" clip-rule="evenodd" d="M2.5 15.8333C2.5 15.3731 2.87308 15 3.33333 15H16.6667C17.1269 15 17.5 15.3731 17.5 15.8333C17.5 16.2936 17.1269 16.6667 16.6667 16.6667H3.33333C2.87308 16.6667 2.5 16.2936 2.5 15.8333Z" fill="#151515"/>
</svg>
