<svg width="48" height="48" viewBox="0 0 48 48" fill="none" xmlns="http://www.w3.org/2000/svg">
<g clip-path="url(#clip0_2115_385)">
<circle opacity="0.5" cx="24" cy="24" r="8" fill="#E2E2E2"/>
<path d="M33.9012 6.5H34H34.0988C35.4286 6.49992 36.5742 6.49986 37.4916 6.62322C38.475 6.75542 39.4174 7.05354 40.182 7.81802C40.9464 8.58252 41.2446 9.52504 41.3768 10.5083C41.5002 11.4258 41.5 12.5715 41.5 13.9013V34.0988C41.5 35.4284 41.5002 36.5742 41.3768 37.4916C41.2446 38.475 40.9464 39.4174 40.182 40.182C39.4174 40.9464 38.475 41.2446 37.4916 41.3768C36.5742 41.5002 35.4284 41.5 34.0988 41.5H33.9012C32.5716 41.5 31.4258 41.5002 30.5084 41.3768C29.525 41.2446 28.5826 40.9464 27.818 40.182C27.0536 39.4174 26.7554 38.475 26.6232 37.4916C26.4998 36.5742 26.5 35.4286 26.5 34.0988V13.9013C26.5 12.5716 26.4998 11.4258 26.6232 10.5083C26.7554 9.52504 27.0536 8.58252 27.818 7.81802C28.5826 7.05354 29.525 6.75542 30.5084 6.62322C31.4258 6.49986 32.5714 6.49992 33.9012 6.5Z" fill="#000775"/>
<path d="M13.9013 6.5H14H14.0988C15.4284 6.49992 16.5742 6.49986 17.4917 6.62322C18.475 6.75542 19.4175 7.05354 20.182 7.81802C20.9464 8.58252 21.2446 9.52504 21.3768 10.5083C21.5002 11.4258 21.5 12.5715 21.5 13.9013V34.0988C21.5 35.4284 21.5002 36.5742 21.3768 37.4916C21.2446 38.475 20.9464 39.4174 20.182 40.182C19.4175 40.9464 18.475 41.2446 17.4917 41.3768C16.5742 41.5002 15.4285 41.5 14.0987 41.5H13.9013C12.5715 41.5 11.4258 41.5002 10.5083 41.3768C9.52504 41.2446 8.58252 40.9464 7.81802 40.182C7.05354 39.4174 6.75542 38.475 6.62322 37.4916C6.49986 36.5742 6.49992 35.4286 6.5 34.0988V13.9013C6.49992 12.5716 6.49986 11.4258 6.62322 10.5083C6.75542 9.52504 7.05354 8.58252 7.81802 7.81802C8.58252 7.05354 9.52504 6.75542 10.5083 6.62322C11.4258 6.49986 12.5716 6.49992 13.9013 6.5Z" fill="#000775"/>
</g>
<defs>
<clipPath id="clip0_2115_385">
<rect width="48" height="48" fill="white"/>
</clipPath>
</defs>
</svg>
