<svg width="48" height="44" viewBox="0 0 48 44" fill="none" xmlns="http://www.w3.org/2000/svg">
<circle opacity="0.5" cx="24" cy="24" r="8" fill="#E2E2E2"/>
<path d="M28.381 12.1741C31.647 14.0295 34.2134 15.4875 36.0418 16.8231C37.8826 18.1678 39.2442 19.5734 39.7318 21.4264C40.0894 22.7854 40.0894 24.2148 39.7318 25.5738C39.2442 27.4268 37.8826 28.8324 36.0418 30.1772C34.2134 31.5128 31.647 32.9708 28.3812 34.826C25.2264 36.6184 22.566 38.1298 20.5464 38.9888C18.5106 39.8548 16.6546 40.2936 14.8507 39.7824C13.525 39.4068 12.3188 38.6938 11.3471 37.7134C10.0284 36.3828 9.49902 34.544 9.24858 32.3308C8.99996 30.134 8.99998 27.258 9 23.6004V23.4C8.99998 19.7422 8.99996 16.8663 9.24858 14.6694C9.49902 12.4563 10.0284 10.6173 11.3471 9.28682C12.3188 8.30646 13.525 7.59344 14.8507 7.2178C16.6546 6.70662 18.5106 7.1455 20.5464 8.01142C22.566 8.87044 25.2264 10.3818 28.381 12.1741Z" fill="#000775"/>
</svg>
