<svg width="20" height="20" viewBox="0 0 20 20" fill="none" xmlns="http://www.w3.org/2000/svg">
<path d="M11.667 11.6666L13.7503 13.75" stroke="#151515" stroke-width="2" stroke-linejoin="round"/>
<path d="M13.6941 15.4377C13.2127 14.9563 13.2127 14.1758 13.6941 13.6944C14.1754 13.213 14.9559 13.213 15.4373 13.6944L17.9719 16.229C18.4533 16.7104 18.4533 17.4909 17.9719 17.9723C17.4906 18.4537 16.7101 18.4537 16.2287 17.9723L13.6941 15.4377Z" stroke="#151515" stroke-width="2" stroke-linecap="round"/>
<path d="M13.3337 7.49996C13.3337 4.2783 10.722 1.66663 7.50033 1.66663C4.27867 1.66663 1.66699 4.2783 1.66699 7.49996C1.66699 10.7216 4.27867 13.3333 7.50033 13.3333C10.722 13.3333 13.3337 10.7216 13.3337 7.49996Z" stroke="#151515" stroke-width="2" stroke-linejoin="round"/>
</svg>
