<svg width="23" height="19" viewBox="0 0 23 19" fill="none" xmlns="http://www.w3.org/2000/svg">
<path d="M11.769 0.527832C12.3564 0.531132 13.8261 0.545433 15.3881 0.608136L15.9426 0.632337C17.5146 0.706041 19.0854 0.833647 19.8654 1.05036C20.9049 1.34297 21.7212 2.19442 21.9973 3.27467C22.4373 4.99075 22.4923 8.33712 22.4989 9.14786L22.5 9.31507V9.50648C22.4923 10.3172 22.4373 13.6647 21.9973 15.3797C21.7179 16.4632 20.9005 17.3158 19.8654 17.604C19.0854 17.8207 17.5146 17.9483 15.9426 18.022L15.3881 18.0473C13.8261 18.1089 12.3564 18.1243 11.769 18.1265L11.5105 18.1276H11.2299C9.98687 18.1199 4.78801 18.0638 3.13353 17.604C2.09508 17.3114 1.27774 16.4599 1.00163 15.3797C0.561603 13.6636 0.5066 10.3172 0.5 9.50648V9.14786C0.5066 8.33712 0.561603 4.98966 1.00163 3.27467C1.28104 2.19112 2.09838 1.33857 3.13463 1.05146C4.78801 0.590535 9.98797 0.534432 11.231 0.527832H11.769ZM9.29934 5.47808V13.1785L15.8997 9.32827L9.29934 5.47808Z" fill="#FF0000"/>
</svg>
